<?xml version="1.0" encoding="UTF-8" standalone="no"?>
<svg
   xmlns:dc="http://purl.org/dc/elements/1.1/"
   xmlns:cc="http://creativecommons.org/ns#"
   xmlns:rdf="http://www.w3.org/1999/02/22-rdf-syntax-ns#"
   xmlns:svg="http://www.w3.org/2000/svg"
   xmlns="http://www.w3.org/2000/svg"
   xmlns:sodipodi="http://sodipodi.sourceforge.net/DTD/sodipodi-0.dtd"
   xmlns:inkscape="http://www.inkscape.org/namespaces/inkscape"
   height="120.36317"
   width="923.0769"
   viewBox="-41.8008 -9.08425 278.67199 8.2005688"
   version="1.1"
   id="svg12"
   sodipodi:docname="Tesla.svg"
   inkscape:version="1.0.2 (e86c8708, 2021-01-15)">
  <metadata
     id="metadata18">
    <rdf:RDF>
      <cc:Work
         rdf:about="">
        <dc:format>image/svg+xml</dc:format>
        <dc:type
           rdf:resource="http://purl.org/dc/dcmitype/StillImage" />
        <dc:title></dc:title>
      </cc:Work>
    </rdf:RDF>
  </metadata>
  <defs
     id="defs16">
    <clipPath
       clipPathUnits="userSpaceOnUse"
       id="clipPath35">
      <rect
         style="fill:#0000ff;fill-rule:evenodd;stroke-width:0.301895"
         id="rect37"
         width="316.02591"
         height="71.426994"
         x="-22.787859"
         y="-27.565331" />
    </clipPath>
  </defs>
  <sodipodi:namedview
     pagecolor="#ffffff"
     bordercolor="#666666"
     borderopacity="1"
     objecttolerance="10"
     gridtolerance="10"
     guidetolerance="10"
     inkscape:pageopacity="0"
     inkscape:pageshadow="2"
     inkscape:window-width="1161"
     inkscape:window-height="661"
     id="namedview14"
     showgrid="false"
     inkscape:zoom="0.5875"
     inkscape:cx="472.86416"
     inkscape:cy="-37.934696"
     inkscape:window-x="0"
     inkscape:window-y="25"
     inkscape:window-maximized="0"
     inkscape:current-layer="svg12" />
  <path
     d="M 231.91064,3.5908708 V 25.502871 h 7.027 v -14.589 h 25.575 v 14.589 h 7.022 V 3.6288708 l -39.624,-0.038 m 6.244,-7.088 h 27.02 c 3.753,-0.746 6.544,-4.058 7.331,-7.2619998 h -41.681 c 0.779,3.2049998 3.611,6.5159998 7.33,7.2619998 m -27.526,29.0140002 c 3.543,-1.502 5.449,-4.1 6.179,-7.14 h -31.517 l 0.02,-29.118 -7.065,0.02 v 36.238 h 32.383 m -84.921,-29.1120002 h 24.954 c 3.762,-1.093 6.921,-3.959 7.691,-7.1359998 h -39.64 v 21.415 h 32.444 v 7.515 l -25.449,0.02 c -3.988,1.112 -7.37,3.79 -9.057,7.327 l 2.062,-0.038 h 39.415 V 3.5638708 h -32.42 v -7.159 m -61.603,0.069 h 27.011 c 3.758,-0.749 6.551,-4.058 7.334,-7.2649998 h -41.679 c 0.778,3.2069998 3.612,6.5159998 7.334,7.2649998 m 0,14.3220002 h 27.011 c 3.758,-0.741 6.551,-4.0530002 7.334,-7.2620002 h -41.679 c 0.778,3.21 3.612,6.5210002 7.334,7.2620002 m 0,14.717 h 27.011 c 3.758,-0.747 6.551,-4.058 7.334,-7.263 h -41.679 c 0.778,3.206 3.612,6.516 7.334,7.263 m -70.2709997,-36.216 c 0.812,3.1669998 3.554001,6.4039998 7.316001,7.2149998 H 12.519641 l 0.58,0.229 V 25.431871 h 7.1 V -3.2591292 l 0.645,-0.229 H 32.22464 c 3.804,-0.98 6.487,-4.048 7.285,-7.2149998 v -0.07 H -6.1663597 v 0.07"
     id="path10"
     clip-path="url(#clipPath35)"
     transform="translate(-35.63444,-12.149434)" />
</svg>
